inDegrees=no
num_controls=7
num_derivatives=13
num_iterations=144
num_multipliers=7
num_parameters=0
num_slacks=7
num_states=26
objective=4.947123
objective_accelerations=0.698411
objective_balance=0.074280
objective_effort=0.674152
objective_height=3.446549
objective_ligament=0.053731
solver_duration=1437.002931
status=Solve_Succeeded
success=true
DataType=double
version=3
OpenSimVersion=4.4-2022-07-23-0e9fedc
endheader
time	/jointset/ground_pelvis/pelvis_tilt/value	/jointset/ground_pelvis/pelvis_tx/value	/jointset/ground_pelvis/pelvis_ty/value	/jointset/hip_l/hip_flexion_l/value	/jointset/hip_l/hip_adduction_l/value	/jointset/hip_l/hip_rotation_l/value	/jointset/back/lumbar_extension/value	/jointset/patellofemoral_l/patellar_flexion_l/value	/jointset/knee_l/knee_flexion_l/value	/jointset/knee_l/knee_adduction_l/value	/jointset/knee_l/knee_rotation_l/value	/jointset/ankle_l/ankle_angle_l/value	/jointset/subtalar_l/subtalar_angle_l/value	/jointset/ground_pelvis/pelvis_tilt/speed	/jointset/ground_pelvis/pelvis_tx/speed	/jointset/ground_pelvis/pelvis_ty/speed	/jointset/hip_l/hip_flexion_l/speed	/jointset/hip_l/hip_adduction_l/speed	/jointset/hip_l/hip_rotation_l/speed	/jointset/back/lumbar_extension/speed	/jointset/patellofemoral_l/patellar_flexion_l/speed	/jointset/knee_l/knee_flexion_l/speed	/jointset/knee_l/knee_adduction_l/speed	/jointset/knee_l/knee_rotation_l/speed	/jointset/ankle_l/ankle_angle_l/speed	/jointset/subtalar_l/subtalar_angle_l/speed	/forceset/tau_hip_flexion_l	/forceset/tau_hip_adduction_l	/forceset/tau_hip_rotation_l	/forceset/tau_knee_flexion_l	/forceset/tau_ankle_angle_l	/forceset/tau_subtalar_angle_l	/forceset/tau_lumbar_extension	lambda_cid13_p0	lambda_cid13_p1	lambda_cid13_p2	lambda_cid13_p3	lambda_cid13_p4	lambda_cid13_p5	lambda_cid14_p0	/jointset/ground_pelvis/pelvis_tilt/accel	/jointset/ground_pelvis/pelvis_tx/accel	/jointset/ground_pelvis/pelvis_ty/accel	/jointset/hip_l/hip_flexion_l/accel	/jointset/hip_l/hip_adduction_l/accel	/jointset/hip_l/hip_rotation_l/accel	/jointset/back/lumbar_extension/accel	/jointset/patellofemoral_l/patellar_flexion_l/accel	/jointset/knee_l/knee_flexion_l/accel	/jointset/knee_l/knee_adduction_l/accel	/jointset/knee_l/knee_rotation_l/accel	/jointset/ankle_l/ankle_angle_l/accel	/jointset/subtalar_l/subtalar_angle_l/accel	gamma_cid13_p0	gamma_cid13_p1	gamma_cid13_p2	gamma_cid13_p3	gamma_cid13_p4	gamma_cid13_p5	gamma_cid14_p0
0.5	-0.1550901359389796	-0.0719097869736897	0.6857995169175458	1.363994067729227	-0.3111364969674064	-0.02653452648540161	-0.8382904399154112	1.344783523105526	1.344783523105551	0.03343300209755765	-0.1745312265812411	0.2368418288699373	0.07013683254078995	-0.1680814522019017	-0.1238734019554555	-0.8834529379847726	2.689800988289737	0.004811042824322459	0.5607803601130504	-0.7567721144007347	2.80288866390003	2.802888663899964	0.4961779879372865	-1.929580490257266e-05	0.4666798517308685	0.2011646683750266	-0.3437352593119604	0.003862577215651243	-0.0184123978241032	-0.3185210754167049	0.09517352026309145	0.04522651391498368	0.385965891031517	-13.12035978531909	-15.1360892067278	-0.5638456278149472	-18.1802929485544	-711.8594081151516	-67.27965357507885	-0.04285377563009776	1.379079655125861	1.213926631801401	-0.2931126187724998	-2.251946646967538	0.1819688639953327	-0.8229366077369751	2.656906468214631	-2.683912763634076	-2.683912763634189	-0.3314739654517195	0.0380484824525253	-2.024534183516017	-0.4875550864229426	-1.326862418795511e-07	-1.501679952911799e-06	1.78084165666008e-07	-4.233320683995785e-07	-2.603264172093012e-07	1.074225342650095e-08	-2.75140291843058e-07
0.51	-0.1567015990026668	-0.07308802699819192	0.67695244694687	1.39077665002257	-0.3110801550921411	-0.02096862839373851	-0.8457250384158919	1.37267463244332	1.37267463244332	0.03837721686801181	-0.1745312977039515	0.2414058933296769	0.07212211956840811	-0.1541633212490274	-0.111796676099127	-0.8857376307205044	2.666398148650879	0.006456433528757775	0.5523911055482876	-0.7301400527189134	2.774969400160694	2.774969400160649	0.4926157919496537	2.648314947946834e-07	0.4460207130262023	0.1958178095923609	-0.3519441962184139	0.002963080727095205	-0.01915794849453921	-0.3261821862593268	0.09504932741212548	0.04432856650738692	0.3942850641972726	-13.77446896356729	-14.43254488965775	-0.9033564187990245	-17.80533399778081	-720.9439740796387	-66.77931648998945	-0.04268449129374928	1.405322498580712	1.201148055397402	-0.1626797475838796	-2.432080674611252	0.1557537969014702	-0.8483902375189835	2.66748596485032	-2.900455027659282	-2.900455027656008	-0.3762216081870682	-0.01680408436768535	-2.103510069772027	-0.569284738042414	-6.874906278698886e-08	-1.336420915683884e-06	-3.370595615180351e-08	-4.517646871546173e-07	-2.17543734745094e-07	-1.017769645673353e-07	-2.201441194144002e-07
0.52	-0.1581724522201888	-0.07414617926556086	0.6680892236195147	1.41731567830908	-0.3110073733851825	-0.01548691691906165	-0.8528930903102168	1.400275644774004	1.400275644773975	0.04328428384004405	-0.1745313160080175	0.2457599851312034	0.0740517313154288	-0.1399594829676376	-0.09985585052879907	-0.8866836093206486	2.641090186921379	0.008099009162549237	0.543943036716602	-0.7034627931697122	2.74486926247832	2.744869262478296	0.4887484282512976	-8.732076148290068e-06	0.4246853200883277	0.1900296122555312	-0.3601531331248175	0.002063584238537244	-0.0199034991649382	-0.3338432971019476	0.09492513456114737	0.04343061909978174	0.4026042373630735	-14.44602524991299	-13.72260586458119	-1.247702363752411	-17.4294031517022	-730.2605722478629	-66.32539097254136	-0.04243782800630866	1.436221120829286	1.186746574601159	-0.02536979165503423	-2.63297106509563	0.1814058498665861	-0.8346994611215557	2.665946041690658	-3.12008755224184	-3.120087552241997	-0.3925075075963164	0.03233697364446109	-2.159785030157936	-0.5758227972557909	-1.614149629828036e-08	-1.279179558080661e-06	-2.936460271094274e-07	-4.903473078551347e-07	-1.927709389213507e-07	-2.873445813373789e-07	-1.731968622168905e-07
0.53	-0.1595000747293713	-0.07508568515065998	0.6592232151874803	1.443592356354102	-0.3109180104785693	-0.01009024041670901	-0.859794260593418	1.427565039592856	1.427565039592821	0.04815168239882991	-0.1745313537270466	0.2498976931779862	0.07592159173972152	-0.1255382665579274	-0.08807545331764666	-0.8862946393434097	2.613939053172068	0.009773590883821889	0.5353850575652526	-0.6767804200894714	2.712667106076254	2.71266710607624	0.4846774880098075	-1.105241243258213e-06	0.4027751310170852	0.1838805696395498	-0.3677349980278458	0.001065322136263826	-0.02069197953642202	-0.3412722996756862	0.09487028840695853	0.04239787397042322	0.4103227087236224	-15.07432596478754	-12.94751844946911	-1.618630045101299	-17.01391415238681	-739.053735087491	-65.71491640562198	-0.04210443454217282	1.449060371746607	1.169065147455778	0.1045101019676552	-2.802158497313483	0.1606050792789669	-0.8675932617051588	2.668009448554599	-3.321639259023717	-3.32163925902202	-0.4226547017179552	-0.01547645322609028	-2.218856184310784	-0.6434820309240049	3.235347809612704e-08	-1.226800597460064e-06	-5.342422899195651e-07	-5.243125548607615e-07	-1.733383184544131e-07	-4.875582802087829e-07	-1.276392398933471e-07
0.54	-0.1606826873803222	-0.07590831129303061	0.6503677923971289	1.469588328268142	-0.3108118776055377	-0.00477939292978624	-0.8664288818443441	1.454522140932719	1.454522140932675	0.05297671807135509	-0.174531405576052	0.2538138552663153	0.07772815433042346	-0.1109575113200152	-0.07647990198309974	-0.8845664809840009	2.58494896072418	0.01145300244595228	0.5267772336313619	-0.650152986714677	2.678410566680795	2.678410566680792	0.4802758509966096	-1.155807192211497e-05	0.380376128397704	0.1773700455373785	-0.3753168629308363	6.706003398741363e-05	-0.02148045990785961	-0.3487013022494238	0.09481544225275912	0.04136512884105536	0.4180411800842051	-15.72337457327886	-12.16526865218008	-1.994732619027449	-16.58115551051187	-748.1190841669535	-65.14739829159183	-0.04178737579908842	1.468128886469976	1.149777399279944	0.2424678847788778	-3.000762804811081	0.1823718180381595	-0.8446684176298195	2.654958100601409	-3.530964150920626	-3.530964150920624	-0.4586468619378287	0.02872104052770752	-2.257547739785894	-0.6481190944938008	7.629835059896722e-08	-1.17980131009684e-06	-7.534368926516329e-07	-5.531692182039562e-07	-1.598139771056437e-07	-7.039761550221177e-07	-8.361908594100038e-08
